<svg id="visual" viewBox="0 0 900 600" width="900" height="600" xmlns="http://www.w3.org/2000/svg" xmlns:xlink="http://www.w3.org/1999/xlink" version="1.1"><g stroke-width="1" stroke-linejoin="bevel"><path d="M448 304.3L470 333L491 335.6Z" fill="#7c0000" stroke="#000000"></path><path d="M491 335.6L478 260.3L448 304.3Z" fill="#db0000" stroke="#000000"></path><path d="M505 332.1L478 260.3L491 335.6Z" fill="#b70001" stroke="#000000"></path><path d="M470 333L492 348.7L491 335.6Z" fill="#570000" stroke="#000000"></path><path d="M491 335.6L492 348.7L505 332.1Z" fill="#ff0000" stroke="#000000"></path><path d="M505 332.1L520 253.1L478 260.3Z" fill="#570000" stroke="#000000"></path><path d="M408 392L470 361.9L470 333Z" fill="#ff0000" stroke="#000000"></path><path d="M470 333L470 361.9L492 348.7Z" fill="#000000" stroke="#000000"></path><path d="M504 385.6L549 319.9L505 332.1Z" fill="#910000" stroke="#000000"></path><path d="M505 332.1L549 319.9L520 253.1Z" fill="#690000" stroke="#000000"></path><path d="M504 385.6L505 332.1L492 348.7Z" fill="#910000" stroke="#000000"></path><path d="M549 319.9L537 245.1L520 253.1Z" fill="#ed0000" stroke="#000000"></path><path d="M494 198.3L460 206.1L478 260.3Z" fill="#570000" stroke="#000000"></path><path d="M590 243.1L539 236L537 245.1Z" fill="#ed0000" stroke="#000000"></path><path d="M537 245.1L539 236L520 253.1Z" fill="#a60000" stroke="#000000"></path><path d="M470 361.9L504 385.6L492 348.7Z" fill="#000000" stroke="#000000"></path><path d="M494 198.3L478 260.3L520 253.1Z" fill="#b70001" stroke="#000000"></path><path d="M478 260.3L460 206.1L448 304.3Z" fill="#7c0000" stroke="#000000"></path><path d="M565 392.6L582 300L549 319.9Z" fill="#ff0000" stroke="#000000"></path><path d="M549 319.9L582 300L537 245.1Z" fill="#570000" stroke="#000000"></path><path d="M539 236L494 198.3L520 253.1Z" fill="#7c0000" stroke="#000000"></path><path d="M354 240.3L381 314.1L448 304.3Z" fill="#570000" stroke="#000000"></path><path d="M448 304.3L408 392L470 333Z" fill="#ed0000" stroke="#000000"></path><path d="M470 361.9L416 426.7L504 385.6Z" fill="#000000" stroke="#000000"></path><path d="M539 236L503 185.6L494 198.3Z" fill="#a60000" stroke="#000000"></path><path d="M494 198.3L494 170.1L460 206.1Z" fill="#570000" stroke="#000000"></path><path d="M582 300L590 243.1L537 245.1Z" fill="#b70001" stroke="#000000"></path><path d="M539 236L522 175.7L503 185.6Z" fill="#690000" stroke="#000000"></path><path d="M381 314.1L408 392L448 304.3Z" fill="#000000" stroke="#000000"></path><path d="M561 463.7L558 395.7L504 385.6Z" fill="#7c0000" stroke="#000000"></path><path d="M504 385.6L558 395.7L549 319.9Z" fill="#ed0000" stroke="#000000"></path><path d="M558 395.7L565 392.6L549 319.9Z" fill="#910000" stroke="#000000"></path><path d="M554 159.7L522 175.7L539 236Z" fill="#7c0000" stroke="#000000"></path><path d="M503 185.6L494 170.1L494 198.3Z" fill="#7c0000" stroke="#000000"></path><path d="M522 175.7L494 170.1L503 185.6Z" fill="#a60000" stroke="#000000"></path><path d="M365 372L411 411.4L408 392Z" fill="#ff0000" stroke="#000000"></path><path d="M408 392L411 411.4L470 361.9Z" fill="#ff0000" stroke="#000000"></path><path d="M322 450.6L412 416.9L411 411.4Z" fill="#ff0000" stroke="#000000"></path><path d="M411 411.4L416 426.7L470 361.9Z" fill="#db0000" stroke="#000000"></path><path d="M381 314.1L365 372L408 392Z" fill="#7c0000" stroke="#000000"></path><path d="M391 188.6L354 240.3L460 206.1Z" fill="#000000" stroke="#000000"></path><path d="M460 206.1L354 240.3L448 304.3Z" fill="#000000" stroke="#000000"></path><path d="M381 314.1L320 346.9L365 372Z" fill="#a60000" stroke="#000000"></path><path d="M401 171.6L391 188.6L460 206.1Z" fill="#b70001" stroke="#000000"></path><path d="M411 488.1L416 426.7L322 450.6Z" fill="#570000" stroke="#000000"></path><path d="M412 416.9L416 426.7L411 411.4Z" fill="#ff0000" stroke="#000000"></path><path d="M452 120.7L401 171.6L460 206.1Z" fill="#570000" stroke="#000000"></path><path d="M391 188.6L354 177.4L354 240.3Z" fill="#ff0000" stroke="#000000"></path><path d="M599 190.3L554 159.7L539 236Z" fill="#ed0000" stroke="#000000"></path><path d="M522 175.7L520 136.3L494 170.1Z" fill="#db0000" stroke="#000000"></path><path d="M494 170.1L452 120.7L460 206.1Z" fill="#570000" stroke="#000000"></path><path d="M670 241.3L599 190.3L590 243.1Z" fill="#000000" stroke="#000000"></path><path d="M590 243.1L599 190.3L539 236Z" fill="#690000" stroke="#000000"></path><path d="M638 366.9L645 280L582 300Z" fill="#570000" stroke="#000000"></path><path d="M582 300L645 280L590 243.1Z" fill="#c90001" stroke="#000000"></path><path d="M531 135.3L522 175.7L554 159.7Z" fill="#c90001" stroke="#000000"></path><path d="M531 135.3L520 136.3L522 175.7Z" fill="#db0000" stroke="#000000"></path><path d="M636 427.9L638 366.9L565 392.6Z" fill="#b70001" stroke="#000000"></path><path d="M565 392.6L638 366.9L582 300Z" fill="#ed0000" stroke="#000000"></path><path d="M328 208.4L317 287.9L354 240.3Z" fill="#570000" stroke="#000000"></path><path d="M354 240.3L317 287.9L381 314.1Z" fill="#7c0000" stroke="#000000"></path><path d="M416 426.7L461 465.7L504 385.6Z" fill="#000000" stroke="#000000"></path><path d="M558 395.7L595 441.3L565 392.6Z" fill="#690000" stroke="#000000"></path><path d="M565 142.4L531 135.3L554 159.7Z" fill="#a60000" stroke="#000000"></path><path d="M309 317L320 346.9L381 314.1Z" fill="#a60000" stroke="#000000"></path><path d="M365 372L322 450.6L411 411.4Z" fill="#ff0000" stroke="#000000"></path><path d="M416 426.7L411 488.1L461 465.7Z" fill="#910000" stroke="#000000"></path><path d="M317 287.9L312 296.3L381 314.1Z" fill="#7c0000" stroke="#000000"></path><path d="M647 139.6L583 156.4L599 190.3Z" fill="#570000" stroke="#000000"></path><path d="M599 190.3L583 156.4L554 159.7Z" fill="#db0000" stroke="#000000"></path><path d="M583 156.4L565 142.4L554 159.7Z" fill="#c90001" stroke="#000000"></path><path d="M312 296.3L309 317L381 314.1Z" fill="#a60000" stroke="#000000"></path><path d="M351 153.6L354 177.4L401 171.6Z" fill="#c90001" stroke="#000000"></path><path d="M401 171.6L354 177.4L391 188.6Z" fill="#ff0000" stroke="#000000"></path><path d="M262 291.9L290 310.7L312 296.3Z" fill="#570000" stroke="#000000"></path><path d="M561 463.7L595 441.3L558 395.7Z" fill="#910000" stroke="#000000"></path><path d="M354 177.4L328 208.4L354 240.3Z" fill="#ff0000" stroke="#000000"></path><path d="M441 110.7L452 120.7L466 84.9Z" fill="#b70001" stroke="#000000"></path><path d="M520 136.3L452 120.7L494 170.1Z" fill="#570000" stroke="#000000"></path><path d="M481 480.4L561 463.7L504 385.6Z" fill="#000000" stroke="#000000"></path><path d="M461 465.7L481 480.4L504 385.6Z" fill="#7c0000" stroke="#000000"></path><path d="M666 267.3L664 263L645 280Z" fill="#910000" stroke="#000000"></path><path d="M645 280L664 263L590 243.1Z" fill="#000000" stroke="#000000"></path><path d="M681 286.7L666 267.3L645 280Z" fill="#7c0000" stroke="#000000"></path><path d="M504 102.6L452 120.7L520 136.3Z" fill="#7c0000" stroke="#000000"></path><path d="M452 120.7L419 112.6L401 171.6Z" fill="#690000" stroke="#000000"></path><path d="M542 111.4L520 136.3L531 135.3Z" fill="#b70001" stroke="#000000"></path><path d="M666 267.3L670 241.3L664 263Z" fill="#ed0000" stroke="#000000"></path><path d="M664 263L670 241.3L590 243.1Z" fill="#a60000" stroke="#000000"></path><path d="M312 296.3L290 310.7L309 317Z" fill="#690000" stroke="#000000"></path><path d="M309 317L290 310.7L320 346.9Z" fill="#c90001" stroke="#000000"></path><path d="M262 291.9L312 296.3L317 287.9Z" fill="#b70001" stroke="#000000"></path><path d="M573 114.7L542 111.4L565 142.4Z" fill="#7c0000" stroke="#000000"></path><path d="M565 142.4L542 111.4L531 135.3Z" fill="#000000" stroke="#000000"></path><path d="M573 114.7L565 142.4L583 156.4Z" fill="#910000" stroke="#000000"></path><path d="M638 366.9L681 286.7L645 280Z" fill="#c90001" stroke="#000000"></path><path d="M666 267.3L681 286.7L670 241.3Z" fill="#000000" stroke="#000000"></path><path d="M542 111.4L504 102.6L520 136.3Z" fill="#690000" stroke="#000000"></path><path d="M414 109.7L351 153.6L401 171.6Z" fill="#c90001" stroke="#000000"></path><path d="M354 177.4L325 180.1L328 208.4Z" fill="#570000" stroke="#000000"></path><path d="M414 109.7L419 112.6L441 110.7Z" fill="#690000" stroke="#000000"></path><path d="M441 110.7L419 112.6L452 120.7Z" fill="#000000" stroke="#000000"></path><path d="M290 310.7L301 373.6L320 346.9Z" fill="#ff0000" stroke="#000000"></path><path d="M320 346.9L301 373.6L365 372Z" fill="#b70001" stroke="#000000"></path><path d="M461 465.7L444 515.1L481 480.4Z" fill="#000000" stroke="#000000"></path><path d="M590 477.1L636 427.9L595 441.3Z" fill="#c90001" stroke="#000000"></path><path d="M595 441.3L636 427.9L565 392.6Z" fill="#a60000" stroke="#000000"></path><path d="M705 318L705 307.9L681 286.7Z" fill="#7c0000" stroke="#000000"></path><path d="M351 153.6L325 180.1L354 177.4Z" fill="#910000" stroke="#000000"></path><path d="M249 234.3L262 291.9L317 287.9Z" fill="#db0000" stroke="#000000"></path><path d="M484 78.4L497 98.4L504 102.6Z" fill="#ed0000" stroke="#000000"></path><path d="M504 102.6L497 98.4L452 120.7Z" fill="#690000" stroke="#000000"></path><path d="M466 84.9L414 109.7L441 110.7Z" fill="#570000" stroke="#000000"></path><path d="M419 112.6L414 109.7L401 171.6Z" fill="#7c0000" stroke="#000000"></path><path d="M674 407.6L672 377L638 366.9Z" fill="#ff0000" stroke="#000000"></path><path d="M322 450.6L416 426.7L412 416.9Z" fill="#7c0000" stroke="#000000"></path><path d="M647 139.6L573 114.7L583 156.4Z" fill="#c90001" stroke="#000000"></path><path d="M513 10.9L484 78.4L504 102.6Z" fill="#c90001" stroke="#000000"></path><path d="M561 463.7L590 477.1L595 441.3Z" fill="#c90001" stroke="#000000"></path><path d="M555 496.1L590 477.1L561 463.7Z" fill="#000000" stroke="#000000"></path><path d="M555 496.1L561 463.7L481 480.4Z" fill="#db0000" stroke="#000000"></path><path d="M504 559.3L555 496.1L481 480.4Z" fill="#910000" stroke="#000000"></path><path d="M285 385.4L308 413.7L301 373.6Z" fill="#a60000" stroke="#000000"></path><path d="M301 373.6L308 413.7L365 372Z" fill="#b70001" stroke="#000000"></path><path d="M484 78.4L466 84.9L497 98.4Z" fill="#a60000" stroke="#000000"></path><path d="M497 98.4L466 84.9L452 120.7Z" fill="#ed0000" stroke="#000000"></path><path d="M243 345L285 385.4L301 373.6Z" fill="#ff0000" stroke="#000000"></path><path d="M636 427.9L674 407.6L638 366.9Z" fill="#7c0000" stroke="#000000"></path><path d="M705 318L681 286.7L638 366.9Z" fill="#690000" stroke="#000000"></path><path d="M676 407.4L674 407.6L663 441.9Z" fill="#910000" stroke="#000000"></path><path d="M663 441.9L674 407.6L636 427.9Z" fill="#a60000" stroke="#000000"></path><path d="M674 407.6L676 407.4L672 377Z" fill="#690000" stroke="#000000"></path><path d="M432 517.4L444 515.1L411 488.1Z" fill="#690000" stroke="#000000"></path><path d="M411 488.1L444 515.1L461 465.7Z" fill="#c90001" stroke="#000000"></path><path d="M705 318L638 366.9L672 377Z" fill="#7c0000" stroke="#000000"></path><path d="M681 286.7L760 276.3L670 241.3Z" fill="#ff0000" stroke="#000000"></path><path d="M487 12.7L484 78.4L513 10.9Z" fill="#db0000" stroke="#000000"></path><path d="M722 342.6L705 318L672 377Z" fill="#db0000" stroke="#000000"></path><path d="M274 418.6L322 450.6L308 413.7Z" fill="#7c0000" stroke="#000000"></path><path d="M308 413.7L322 450.6L365 372Z" fill="#ff0000" stroke="#000000"></path><path d="M760 276.3L685 201.3L670 241.3Z" fill="#ff0000" stroke="#000000"></path><path d="M670 241.3L685 201.3L599 190.3Z" fill="#570000" stroke="#000000"></path><path d="M249 234.3L317 287.9L328 208.4Z" fill="#570000" stroke="#000000"></path><path d="M290 310.7L243 345L301 373.6Z" fill="#ed0000" stroke="#000000"></path><path d="M403 566.4L432 517.4L411 488.1Z" fill="#690000" stroke="#000000"></path><path d="M570 554.3L613 514.6L555 496.1Z" fill="#000000" stroke="#000000"></path><path d="M487 12.7L475 72.9L484 78.4Z" fill="#690000" stroke="#000000"></path><path d="M484 78.4L475 72.9L466 84.9Z" fill="#000000" stroke="#000000"></path><path d="M423 0L366 78.7L414 109.7Z" fill="#000000" stroke="#000000"></path><path d="M685 201.3L647 139.6L599 190.3Z" fill="#ed0000" stroke="#000000"></path><path d="M573 114.7L538 0L542 111.4Z" fill="#b70001" stroke="#000000"></path><path d="M613 514.6L663 441.9L590 477.1Z" fill="#570000" stroke="#000000"></path><path d="M590 477.1L663 441.9L636 427.9Z" fill="#c90001" stroke="#000000"></path><path d="M280 170.1L278 199.1L325 180.1Z" fill="#910000" stroke="#000000"></path><path d="M325 180.1L278 199.1L328 208.4Z" fill="#7c0000" stroke="#000000"></path><path d="M280 170.1L325 180.1L312 103.6Z" fill="#db0000" stroke="#000000"></path><path d="M705 318L717 306.7L705 307.9Z" fill="#7c0000" stroke="#000000"></path><path d="M705 307.9L717 306.7L681 286.7Z" fill="#a60000" stroke="#000000"></path><path d="M722 342.6L717 306.7L705 318Z" fill="#a60000" stroke="#000000"></path><path d="M722 342.6L672 377L737 390Z" fill="#000000" stroke="#000000"></path><path d="M710 167.1L649 131.6L647 139.6Z" fill="#b70001" stroke="#000000"></path><path d="M647 139.6L649 131.6L573 114.7Z" fill="#570000" stroke="#000000"></path><path d="M240 375.4L275 408.6L285 385.4Z" fill="#000000" stroke="#000000"></path><path d="M285 385.4L275 408.6L308 413.7Z" fill="#000000" stroke="#000000"></path><path d="M737 390L672 377L676 407.4Z" fill="#b70001" stroke="#000000"></path><path d="M312 103.6L325 180.1L351 153.6Z" fill="#7c0000" stroke="#000000"></path><path d="M278 199.1L249 234.3L328 208.4Z" fill="#c90001" stroke="#000000"></path><path d="M366 78.7L351 153.6L414 109.7Z" fill="#7c0000" stroke="#000000"></path><path d="M224 390.9L274 418.6L275 408.6Z" fill="#db0000" stroke="#000000"></path><path d="M275 408.6L274 418.6L308 413.7Z" fill="#910000" stroke="#000000"></path><path d="M222 230.1L249 234.3L227 177.1Z" fill="#a60000" stroke="#000000"></path><path d="M262 291.9L243 345L290 310.7Z" fill="#a60000" stroke="#000000"></path><path d="M239 350.9L243 345L221 360.6Z" fill="#570000" stroke="#000000"></path><path d="M284 479.6L309 476.3L322 450.6Z" fill="#7c0000" stroke="#000000"></path><path d="M322 450.6L346 513.1L411 488.1Z" fill="#690000" stroke="#000000"></path><path d="M423 0L414 109.7L466 84.9Z" fill="#ff0000" stroke="#000000"></path><path d="M555 496.1L613 514.6L590 477.1Z" fill="#910000" stroke="#000000"></path><path d="M504 559.3L481 480.4L444 515.1Z" fill="#7c0000" stroke="#000000"></path><path d="M235 355.7L221 360.6L232 358Z" fill="#000000" stroke="#000000"></path><path d="M243 345L240 375.4L285 385.4Z" fill="#c90001" stroke="#000000"></path><path d="M313 490.4L346 513.1L322 450.6Z" fill="#ff0000" stroke="#000000"></path><path d="M235 355.7L239 350.9L221 360.6Z" fill="#c90001" stroke="#000000"></path><path d="M239 350.9L240 375.4L243 345Z" fill="#db0000" stroke="#000000"></path><path d="M284 479.6L313 490.4L309 476.3Z" fill="#ff0000" stroke="#000000"></path><path d="M235 355.7L240 375.4L239 350.9Z" fill="#ed0000" stroke="#000000"></path><path d="M259 446.4L322 450.6L274 418.6Z" fill="#c90001" stroke="#000000"></path><path d="M309 476.3L313 490.4L322 450.6Z" fill="#7c0000" stroke="#000000"></path><path d="M220 276.3L243 345L262 291.9Z" fill="#ff0000" stroke="#000000"></path><path d="M235 355.7L232 358L240 375.4Z" fill="#b70001" stroke="#000000"></path><path d="M366 78.7L312 103.6L351 153.6Z" fill="#ff0000" stroke="#000000"></path><path d="M222 230.1L220 276.3L249 234.3Z" fill="#910000" stroke="#000000"></path><path d="M760 276.3L710 167.1L685 201.3Z" fill="#7c0000" stroke="#000000"></path><path d="M685 201.3L710 167.1L647 139.6Z" fill="#910000" stroke="#000000"></path><path d="M760 276.3L681 286.7L717 306.7Z" fill="#ff0000" stroke="#000000"></path><path d="M503 561.4L444 515.1L430 582.1Z" fill="#000000" stroke="#000000"></path><path d="M503 561.4L504 559.3L444 515.1Z" fill="#910000" stroke="#000000"></path><path d="M671 94.7L621 74.4L649 131.6Z" fill="#7c0000" stroke="#000000"></path><path d="M649 131.6L621 74.4L573 114.7Z" fill="#ed0000" stroke="#000000"></path><path d="M430 582.1L444 515.1L432 517.4Z" fill="#570000" stroke="#000000"></path><path d="M504 559.3L570 554.3L555 496.1Z" fill="#b70001" stroke="#000000"></path><path d="M249 234.3L278 199.1L227 177.1Z" fill="#690000" stroke="#000000"></path><path d="M249 234.3L220 276.3L262 291.9Z" fill="#ed0000" stroke="#000000"></path><path d="M709 445.3L676 407.4L663 441.9Z" fill="#000000" stroke="#000000"></path><path d="M709 445.3L720 424.4L676 407.4Z" fill="#910000" stroke="#000000"></path><path d="M709 461.6L709 445.3L663 441.9Z" fill="#690000" stroke="#000000"></path><path d="M720 424.4L737 390L676 407.4Z" fill="#7c0000" stroke="#000000"></path><path d="M768 328.7L760 276.3L717 306.7Z" fill="#000000" stroke="#000000"></path><path d="M737 390L746 362.6L722 342.6Z" fill="#570000" stroke="#000000"></path><path d="M555 588.3L570 554.3L504 559.3Z" fill="#ff0000" stroke="#000000"></path><path d="M613 514.6L641 522.4L663 441.9Z" fill="#7c0000" stroke="#000000"></path><path d="M570 554.3L611 537.1L613 514.6Z" fill="#c90001" stroke="#000000"></path><path d="M256 449.6L259 446.4L228 458.3Z" fill="#000000" stroke="#000000"></path><path d="M224 390.9L259 446.4L274 418.6Z" fill="#570000" stroke="#000000"></path><path d="M309 565.3L362 590.3L346 513.1Z" fill="#000000" stroke="#000000"></path><path d="M259 446.4L284 479.6L322 450.6Z" fill="#690000" stroke="#000000"></path><path d="M220 276.3L221 360.6L243 345Z" fill="#c90001" stroke="#000000"></path><path d="M232 358L221 360.6L240 375.4Z" fill="#db0000" stroke="#000000"></path><path d="M227 177.1L278 199.1L280 170.1Z" fill="#910000" stroke="#000000"></path><path d="M611 537.1L641 522.4L613 514.6Z" fill="#b70001" stroke="#000000"></path><path d="M224 390.9L275 408.6L240 375.4Z" fill="#b70001" stroke="#000000"></path><path d="M259 446.4L256 449.6L284 479.6Z" fill="#7c0000" stroke="#000000"></path><path d="M768 328.7L717 306.7L722 342.6Z" fill="#000000" stroke="#000000"></path><path d="M684 92.6L671 94.7L649 131.6Z" fill="#7c0000" stroke="#000000"></path><path d="M221 360.6L224 390.9L240 375.4Z" fill="#690000" stroke="#000000"></path><path d="M808 346.9L782 345.1L737 390Z" fill="#910000" stroke="#000000"></path><path d="M709 445.3L753 441.9L720 424.4Z" fill="#ff0000" stroke="#000000"></path><path d="M674 518.4L709 461.6L663 441.9Z" fill="#910000" stroke="#000000"></path><path d="M362 590.3L403 566.4L346 513.1Z" fill="#ff0000" stroke="#000000"></path><path d="M346 513.1L403 566.4L411 488.1Z" fill="#7c0000" stroke="#000000"></path><path d="M366 78.7L305 81.4L312 103.6Z" fill="#a60000" stroke="#000000"></path><path d="M241 121.4L227 177.1L280 170.1Z" fill="#570000" stroke="#000000"></path><path d="M303 33.6L305 81.4L366 78.7Z" fill="#7c0000" stroke="#000000"></path><path d="M166 227L206 253.9L222 230.1Z" fill="#c90001" stroke="#000000"></path><path d="M222 230.1L206 253.9L220 276.3Z" fill="#570000" stroke="#000000"></path><path d="M220 276.3L186 366.9L221 360.6Z" fill="#a60000" stroke="#000000"></path><path d="M186 414.7L228 458.3L224 390.9Z" fill="#a60000" stroke="#000000"></path><path d="M782 345.1L768 328.7L746 362.6Z" fill="#690000" stroke="#000000"></path><path d="M746 362.6L768 328.7L722 342.6Z" fill="#ff0000" stroke="#000000"></path><path d="M782 345.1L746 362.6L737 390Z" fill="#db0000" stroke="#000000"></path><path d="M241 121.4L280 170.1L312 103.6Z" fill="#db0000" stroke="#000000"></path><path d="M513 10.9L504 102.6L542 111.4Z" fill="#a60000" stroke="#000000"></path><path d="M475 72.9L439 0L466 84.9Z" fill="#910000" stroke="#000000"></path><path d="M513 10.9L542 111.4L538 0Z" fill="#570000" stroke="#000000"></path><path d="M710 167.1L684 92.6L649 131.6Z" fill="#690000" stroke="#000000"></path><path d="M643 0L631 0L621 74.4Z" fill="#a60000" stroke="#000000"></path><path d="M729 142.6L684 92.6L710 167.1Z" fill="#c90001" stroke="#000000"></path><path d="M403 566.4L430 582.1L432 517.4Z" fill="#ed0000" stroke="#000000"></path><path d="M503 561.4L555 588.3L504 559.3Z" fill="#ed0000" stroke="#000000"></path><path d="M518 0L513 10.9L538 0Z" fill="#ed0000" stroke="#000000"></path><path d="M657 570.1L674 518.4L641 522.4Z" fill="#ed0000" stroke="#000000"></path><path d="M641 522.4L674 518.4L663 441.9Z" fill="#c90001" stroke="#000000"></path><path d="M644 571.3L641 522.4L611 537.1Z" fill="#db0000" stroke="#000000"></path><path d="M817 135.4L729 142.6L710 167.1Z" fill="#ff0000" stroke="#000000"></path><path d="M806 325.7L779 308L768 328.7Z" fill="#db0000" stroke="#000000"></path><path d="M768 328.7L779 308L760 276.3Z" fill="#ed0000" stroke="#000000"></path><path d="M817 135.4L758 121.9L729 142.6Z" fill="#690000" stroke="#000000"></path><path d="M455 600L497 595.1L503 561.4Z" fill="#000000" stroke="#000000"></path><path d="M612 600L644 571.3L611 537.1Z" fill="#b70001" stroke="#000000"></path><path d="M542 600L555 588.3L503 561.4Z" fill="#ed0000" stroke="#000000"></path><path d="M513 10.9L487 0L487 12.7Z" fill="#db0000" stroke="#000000"></path><path d="M487 12.7L439 0L475 72.9Z" fill="#ed0000" stroke="#000000"></path><path d="M538 0L573 114.7L621 74.4Z" fill="#7c0000" stroke="#000000"></path><path d="M513 10.9L518 0L487 0Z" fill="#7c0000" stroke="#000000"></path><path d="M753 441.9L737 390L720 424.4Z" fill="#ed0000" stroke="#000000"></path><path d="M753 441.9L709 445.3L709 461.6Z" fill="#690000" stroke="#000000"></path><path d="M305 81.4L241 121.4L312 103.6Z" fill="#ff0000" stroke="#000000"></path><path d="M227 177.1L196 169.4L222 230.1Z" fill="#c90001" stroke="#000000"></path><path d="M455 600L505 600L497 595.1Z" fill="#570000" stroke="#000000"></path><path d="M497 595.1L505 600L503 561.4Z" fill="#ed0000" stroke="#000000"></path><path d="M186 366.9L224 390.9L221 360.6Z" fill="#b70001" stroke="#000000"></path><path d="M224 390.9L228 458.3L259 446.4Z" fill="#7c0000" stroke="#000000"></path><path d="M256 449.6L228 458.3L284 479.6Z" fill="#570000" stroke="#000000"></path><path d="M309 565.3L346 513.1L313 490.4Z" fill="#c90001" stroke="#000000"></path><path d="M487 0L439 0L487 12.7Z" fill="#ff0000" stroke="#000000"></path><path d="M430 582.1L455 600L503 561.4Z" fill="#690000" stroke="#000000"></path><path d="M451 600L455 600L430 582.1Z" fill="#910000" stroke="#000000"></path><path d="M451 600L430 582.1L375 600Z" fill="#ed0000" stroke="#000000"></path><path d="M375 600L430 582.1L403 566.4Z" fill="#b70001" stroke="#000000"></path><path d="M631 0L538 0L621 74.4Z" fill="#910000" stroke="#000000"></path><path d="M777 464.6L753 441.9L709 461.6Z" fill="#b70001" stroke="#000000"></path><path d="M439 0L423 0L466 84.9Z" fill="#690000" stroke="#000000"></path><path d="M305 81.4L224 102.9L241 121.4Z" fill="#910000" stroke="#000000"></path><path d="M127 239.4L186 366.9L220 276.3Z" fill="#a60000" stroke="#000000"></path><path d="M505 600L542 600L503 561.4Z" fill="#7c0000" stroke="#000000"></path><path d="M612 600L611 537.1L570 554.3Z" fill="#000000" stroke="#000000"></path><path d="M241 121.4L213 152.3L227 177.1Z" fill="#b70001" stroke="#000000"></path><path d="M206 253.9L127 239.4L220 276.3Z" fill="#7c0000" stroke="#000000"></path><path d="M423 0L405 0L366 78.7Z" fill="#ed0000" stroke="#000000"></path><path d="M612 600L570 554.3L555 588.3Z" fill="#7c0000" stroke="#000000"></path><path d="M674 518.4L700 550.1L709 461.6Z" fill="#a60000" stroke="#000000"></path><path d="M309 565.3L313 490.4L284 479.6Z" fill="#db0000" stroke="#000000"></path><path d="M198 151.4L196 169.4L213 152.3Z" fill="#000000" stroke="#000000"></path><path d="M213 152.3L196 169.4L227 177.1Z" fill="#000000" stroke="#000000"></path><path d="M202 523.3L309 565.3L284 479.6Z" fill="#7c0000" stroke="#000000"></path><path d="M186 366.9L186 414.7L224 390.9Z" fill="#db0000" stroke="#000000"></path><path d="M228 458.3L202 523.3L284 479.6Z" fill="#ed0000" stroke="#000000"></path><path d="M276 599.3L375 600L362 590.3Z" fill="#b70001" stroke="#000000"></path><path d="M362 590.3L375 600L403 566.4Z" fill="#db0000" stroke="#000000"></path><path d="M648 600L657 570.1L644 571.3Z" fill="#000000" stroke="#000000"></path><path d="M644 571.3L657 570.1L641 522.4Z" fill="#a60000" stroke="#000000"></path><path d="M806 325.7L768 328.7L782 345.1Z" fill="#b70001" stroke="#000000"></path><path d="M806 325.7L806 309.7L779 308Z" fill="#c90001" stroke="#000000"></path><path d="M779 308L818 270.1L760 276.3Z" fill="#ed0000" stroke="#000000"></path><path d="M327 0L303 33.6L366 78.7Z" fill="#db0000" stroke="#000000"></path><path d="M224 102.9L198 151.4L213 152.3Z" fill="#690000" stroke="#000000"></path><path d="M808 346.9L806 325.7L782 345.1Z" fill="#690000" stroke="#000000"></path><path d="M224 102.9L213 152.3L241 121.4Z" fill="#000000" stroke="#000000"></path><path d="M817 135.4L710 167.1L760 276.3Z" fill="#910000" stroke="#000000"></path><path d="M729 142.6L752 91.9L684 92.6Z" fill="#000000" stroke="#000000"></path><path d="M643 0L621 74.4L675 0Z" fill="#000000" stroke="#000000"></path><path d="M268 39.6L224 102.9L305 81.4Z" fill="#570000" stroke="#000000"></path><path d="M850 317.7L818 270.1L806 309.7Z" fill="#910000" stroke="#000000"></path><path d="M753 441.9L808 346.9L737 390Z" fill="#c90001" stroke="#000000"></path><path d="M141 164.6L166 227L196 169.4Z" fill="#b70001" stroke="#000000"></path><path d="M196 169.4L166 227L222 230.1Z" fill="#db0000" stroke="#000000"></path><path d="M186 366.9L138 397.9L186 414.7Z" fill="#910000" stroke="#000000"></path><path d="M542 600L612 600L555 588.3Z" fill="#b70001" stroke="#000000"></path><path d="M138 397.9L188 442.3L186 414.7Z" fill="#c90001" stroke="#000000"></path><path d="M186 414.7L188 442.3L228 458.3Z" fill="#570000" stroke="#000000"></path><path d="M714 600L700 550.1L657 570.1Z" fill="#7c0000" stroke="#000000"></path><path d="M657 570.1L700 550.1L674 518.4Z" fill="#db0000" stroke="#000000"></path><path d="M753 441.9L777 464.6L808 346.9Z" fill="#a60000" stroke="#000000"></path><path d="M612 600L623 600L644 571.3Z" fill="#000000" stroke="#000000"></path><path d="M621 74.4L671 94.7L675 0Z" fill="#c90001" stroke="#000000"></path><path d="M775 115.6L762 113.4L758 121.9Z" fill="#ed0000" stroke="#000000"></path><path d="M758 121.9L752 91.9L729 142.6Z" fill="#910000" stroke="#000000"></path><path d="M832 330.9L806 309.7L806 325.7Z" fill="#ff0000" stroke="#000000"></path><path d="M806 309.7L818 270.1L779 308Z" fill="#c90001" stroke="#000000"></path><path d="M700 550.1L777 464.6L709 461.6Z" fill="#000000" stroke="#000000"></path><path d="M762 113.4L752 91.9L758 121.9Z" fill="#c90001" stroke="#000000"></path><path d="M405 0L327 0L366 78.7Z" fill="#ed0000" stroke="#000000"></path><path d="M303 33.6L268 39.6L305 81.4Z" fill="#910000" stroke="#000000"></path><path d="M273 24.9L268 39.6L303 33.6Z" fill="#690000" stroke="#000000"></path><path d="M675 0L671 94.7L684 92.6Z" fill="#000000" stroke="#000000"></path><path d="M623 600L648 600L644 571.3Z" fill="#910000" stroke="#000000"></path><path d="M762 113.4L761 87.4L752 91.9Z" fill="#ed0000" stroke="#000000"></path><path d="M817 135.4L775 115.6L758 121.9Z" fill="#db0000" stroke="#000000"></path><path d="M301 0L273 24.9L303 33.6Z" fill="#7c0000" stroke="#000000"></path><path d="M195 5.7L142 84.9L224 102.9Z" fill="#ff0000" stroke="#000000"></path><path d="M143 121.7L170 153.7L198 151.4Z" fill="#690000" stroke="#000000"></path><path d="M198 151.4L170 153.7L196 169.4Z" fill="#c90001" stroke="#000000"></path><path d="M141 164.6L170 153.7L143 121.7Z" fill="#a60000" stroke="#000000"></path><path d="M775 115.6L761 87.4L762 113.4Z" fill="#ff0000" stroke="#000000"></path><path d="M757 0L675 0L684 92.6Z" fill="#910000" stroke="#000000"></path><path d="M900 350L832 330.9L900 383.4Z" fill="#db0000" stroke="#000000"></path><path d="M808 346.9L832 330.9L806 325.7Z" fill="#a60000" stroke="#000000"></path><path d="M327 0L301 0L303 33.6Z" fill="#db0000" stroke="#000000"></path><path d="M423 0L358 -31.1L405 0Z" fill="#910000" stroke="#000000"></path><path d="M405 0L358 -31.1L327 0Z" fill="#690000" stroke="#000000"></path><path d="M285 -36.1L287 -10.3L301 0Z" fill="#ff0000" stroke="#000000"></path><path d="M439 0L358 -31.1L423 0Z" fill="#570000" stroke="#000000"></path><path d="M487 0L358 -31.1L439 0Z" fill="#690000" stroke="#000000"></path><path d="M588 -40.1L358 -31.1L487 0Z" fill="#570000" stroke="#000000"></path><path d="M588 -40.1L487 0L518 0Z" fill="#7c0000" stroke="#000000"></path><path d="M588 -40.1L518 0L538 0Z" fill="#c90001" stroke="#000000"></path><path d="M588 -40.1L538 0L631 0Z" fill="#7c0000" stroke="#000000"></path><path d="M757 0L684 92.6L752 91.9Z" fill="#7c0000" stroke="#000000"></path><path d="M643 0L588 -40.1L631 0Z" fill="#db0000" stroke="#000000"></path><path d="M714 -31.1L588 -40.1L643 0Z" fill="#c90001" stroke="#000000"></path><path d="M127 239.4L206 253.9L166 227Z" fill="#000000" stroke="#000000"></path><path d="M72 315.1L138 397.9L186 366.9Z" fill="#a60000" stroke="#000000"></path><path d="M174 504.1L202 523.3L228 458.3Z" fill="#b70001" stroke="#000000"></path><path d="M174 504.1L228 458.3L188 442.3Z" fill="#7c0000" stroke="#000000"></path><path d="M309 565.3L276 599.3L362 590.3Z" fill="#000000" stroke="#000000"></path><path d="M141 164.6L127 239.4L166 227Z" fill="#c90001" stroke="#000000"></path><path d="M900 314.7L850 317.7L900 350Z" fill="#a60000" stroke="#000000"></path><path d="M832 330.9L850 317.7L806 309.7Z" fill="#ff0000" stroke="#000000"></path><path d="M818 270.1L817 135.4L760 276.3Z" fill="#910000" stroke="#000000"></path><path d="M257 600L276 599.3L309 565.3Z" fill="#000000" stroke="#000000"></path><path d="M285 -36.1L301 0L327 0Z" fill="#ff0000" stroke="#000000"></path><path d="M301 0L287 -10.3L273 24.9Z" fill="#b70001" stroke="#000000"></path><path d="M143 121.7L198 151.4L224 102.9Z" fill="#690000" stroke="#000000"></path><path d="M265 0L268 39.6L273 24.9Z" fill="#b70001" stroke="#000000"></path><path d="M170 153.7L141 164.6L196 169.4Z" fill="#910000" stroke="#000000"></path><path d="M842 78.4L777 46.7L761 87.4Z" fill="#570000" stroke="#000000"></path><path d="M761 87.4L777 46.7L752 91.9Z" fill="#570000" stroke="#000000"></path><path d="M873 191.3L817 135.4L818 270.1Z" fill="#7c0000" stroke="#000000"></path><path d="M287 -10.3L265 0L273 24.9Z" fill="#690000" stroke="#000000"></path><path d="M152 468.7L174 504.1L188 442.3Z" fill="#690000" stroke="#000000"></path><path d="M202 523.3L257 600L309 565.3Z" fill="#db0000" stroke="#000000"></path><path d="M138 397.9L152 468.7L188 442.3Z" fill="#690000" stroke="#000000"></path><path d="M242 600L257 600L202 523.3Z" fill="#db0000" stroke="#000000"></path><path d="M276 599.3L222 639.1L375 600Z" fill="#c90001" stroke="#000000"></path><path d="M648 600L714 600L657 570.1Z" fill="#b70001" stroke="#000000"></path><path d="M700 550.1L807 525.3L777 464.6Z" fill="#db0000" stroke="#000000"></path><path d="M777 464.6L873 445.4L808 346.9Z" fill="#a60000" stroke="#000000"></path><path d="M152 468.7L154 487.1L174 504.1Z" fill="#000000" stroke="#000000"></path><path d="M180 551.4L242 600L202 523.3Z" fill="#690000" stroke="#000000"></path><path d="M111 500.1L154 487.1L152 468.7Z" fill="#a60000" stroke="#000000"></path><path d="M87 167.6L105 250L127 239.4Z" fill="#690000" stroke="#000000"></path><path d="M127 239.4L87 286.1L186 366.9Z" fill="#a60000" stroke="#000000"></path><path d="M77 421.4L111 500.1L152 468.7Z" fill="#000000" stroke="#000000"></path><path d="M142 84.9L143 121.7L224 102.9Z" fill="#690000" stroke="#000000"></path><path d="M141 164.6L87 167.6L127 239.4Z" fill="#7c0000" stroke="#000000"></path><path d="M842 78.4L761 87.4L775 115.6Z" fill="#7c0000" stroke="#000000"></path><path d="M675 0L714 -31.1L643 0Z" fill="#c90001" stroke="#000000"></path><path d="M180 551.4L202 523.3L174 504.1Z" fill="#ed0000" stroke="#000000"></path><path d="M287 -10.3L285 -36.1L265 0Z" fill="#db0000" stroke="#000000"></path><path d="M195 5.7L224 102.9L268 39.6Z" fill="#b70001" stroke="#000000"></path><path d="M358 -31.1L285 -36.1L327 0Z" fill="#000000" stroke="#000000"></path><path d="M588 -40.1L285 -36.1L358 -31.1Z" fill="#c90001" stroke="#000000"></path><path d="M789 576.1L807 525.3L700 550.1Z" fill="#570000" stroke="#000000"></path><path d="M159 567.3L180 551.4L142 551.1Z" fill="#000000" stroke="#000000"></path><path d="M900 274.9L818 270.1L850 317.7Z" fill="#a60000" stroke="#000000"></path><path d="M900 274.9L874 226L818 270.1Z" fill="#7c0000" stroke="#000000"></path><path d="M817 135.4L842 78.4L775 115.6Z" fill="#db0000" stroke="#000000"></path><path d="M714 600L742 600L700 550.1Z" fill="#ff0000" stroke="#000000"></path><path d="M41 192.3L87 286.1L105 250Z" fill="#570000" stroke="#000000"></path><path d="M105 250L87 286.1L127 239.4Z" fill="#000000" stroke="#000000"></path><path d="M102 115.3L116 146.7L143 121.7Z" fill="#000000" stroke="#000000"></path><path d="M143 121.7L116 146.7L141 164.6Z" fill="#910000" stroke="#000000"></path><path d="M831 600L823 514.4L807 525.3Z" fill="#910000" stroke="#000000"></path><path d="M807 525.3L823 514.4L777 464.6Z" fill="#ed0000" stroke="#000000"></path><path d="M757 0L714 -31.1L675 0Z" fill="#a60000" stroke="#000000"></path><path d="M874 226L873 191.3L818 270.1Z" fill="#ff0000" stroke="#000000"></path><path d="M195 5.7L268 39.6L265 0Z" fill="#000000" stroke="#000000"></path><path d="M763 0L757 0L764 0.7Z" fill="#b70001" stroke="#000000"></path><path d="M777 46.7L757 0L752 91.9Z" fill="#db0000" stroke="#000000"></path><path d="M764 0.7L757 0L777 46.7Z" fill="#db0000" stroke="#000000"></path><path d="M757 0L761 -10.1L714 -31.1Z" fill="#db0000" stroke="#000000"></path><path d="M803 0L764 0.7L777 46.7Z" fill="#b70001" stroke="#000000"></path><path d="M742 600L789 576.1L700 550.1Z" fill="#570000" stroke="#000000"></path><path d="M763 600L789 576.1L742 600Z" fill="#7c0000" stroke="#000000"></path><path d="M174 -36.1L195 5.7L265 0Z" fill="#910000" stroke="#000000"></path><path d="M16 290L72 315.1L87 286.1Z" fill="#ff0000" stroke="#000000"></path><path d="M87 286.1L72 315.1L186 366.9Z" fill="#910000" stroke="#000000"></path><path d="M142 551.1L180 551.4L174 504.1Z" fill="#c90001" stroke="#000000"></path><path d="M803 0L761 -10.1L764 0.7Z" fill="#c90001" stroke="#000000"></path><path d="M764 0.7L761 -10.1L763 0Z" fill="#000000" stroke="#000000"></path><path d="M763 0L761 -10.1L757 0Z" fill="#910000" stroke="#000000"></path><path d="M909 449.6L873 445.4L900 492.6Z" fill="#b70001" stroke="#000000"></path><path d="M823 514.4L873 445.4L777 464.6Z" fill="#a60000" stroke="#000000"></path><path d="M900 350L850 317.7L832 330.9Z" fill="#c90001" stroke="#000000"></path><path d="M900 209.4L884 179.6L873 191.3Z" fill="#b70001" stroke="#000000"></path><path d="M900 314.7L900 274.9L850 317.7Z" fill="#b70001" stroke="#000000"></path><path d="M900 209.4L873 191.3L874 226Z" fill="#570000" stroke="#000000"></path><path d="M873 191.3L884 179.6L817 135.4Z" fill="#ed0000" stroke="#000000"></path><path d="M900 383.4L832 330.9L808 346.9Z" fill="#db0000" stroke="#000000"></path><path d="M78 144.7L87 167.6L116 146.7Z" fill="#a60000" stroke="#000000"></path><path d="M116 146.7L87 167.6L141 164.6Z" fill="#ff0000" stroke="#000000"></path><path d="M858 80.9L842 78.4L817 135.4Z" fill="#570000" stroke="#000000"></path><path d="M900 274.9L900 227.6L874 226Z" fill="#000000" stroke="#000000"></path><path d="M142 551.1L174 504.1L154 487.1Z" fill="#7c0000" stroke="#000000"></path><path d="M180 551.4L173 600L242 600Z" fill="#7c0000" stroke="#000000"></path><path d="M900 227.6L900 217.1L874 226Z" fill="#000000" stroke="#000000"></path><path d="M901 160.1L858 80.9L817 135.4Z" fill="#570000" stroke="#000000"></path><path d="M873 445.4L900 383.4L808 346.9Z" fill="#000000" stroke="#000000"></path><path d="M900 217.1L900 213.3L874 226Z" fill="#ff0000" stroke="#000000"></path><path d="M89 87.6L102 115.3L142 84.9Z" fill="#a60000" stroke="#000000"></path><path d="M142 84.9L102 115.3L143 121.7Z" fill="#a60000" stroke="#000000"></path><path d="M77 421.4L152 468.7L138 397.9Z" fill="#910000" stroke="#000000"></path><path d="M900 213.3L900 209.4L874 226Z" fill="#ff0000" stroke="#000000"></path><path d="M111 500.1L142 551.1L154 487.1Z" fill="#ff0000" stroke="#000000"></path><path d="M46 361.7L77 421.4L138 397.9Z" fill="#ed0000" stroke="#000000"></path><path d="M174 -36.1L174 3.9L195 5.7Z" fill="#570000" stroke="#000000"></path><path d="M195 5.7L174 3.9L142 84.9Z" fill="#7c0000" stroke="#000000"></path><path d="M763 600L803 587.3L789 576.1Z" fill="#a60000" stroke="#000000"></path><path d="M789 576.1L803 587.3L807 525.3Z" fill="#ff0000" stroke="#000000"></path><path d="M173 600L180 551.4L159 567.3Z" fill="#910000" stroke="#000000"></path><path d="M173 600L222 639.1L242 600Z" fill="#ed0000" stroke="#000000"></path><path d="M242 600L222 639.1L257 600Z" fill="#ff0000" stroke="#000000"></path><path d="M257 600L222 639.1L276 599.3Z" fill="#b70001" stroke="#000000"></path><path d="M375 600L222 639.1L451 600Z" fill="#ff0000" stroke="#000000"></path><path d="M451 600L222 639.1L455 600Z" fill="#b70001" stroke="#000000"></path><path d="M455 600L222 639.1L505 600Z" fill="#910000" stroke="#000000"></path><path d="M505 600L222 639.1L542 600Z" fill="#ed0000" stroke="#000000"></path><path d="M542 600L222 639.1L612 600Z" fill="#db0000" stroke="#000000"></path><path d="M612 600L222 639.1L623 600Z" fill="#7c0000" stroke="#000000"></path><path d="M623 600L222 639.1L648 600Z" fill="#a60000" stroke="#000000"></path><path d="M648 600L842 608.1L714 600Z" fill="#c90001" stroke="#000000"></path><path d="M714 600L842 608.1L742 600Z" fill="#570000" stroke="#000000"></path><path d="M742 600L842 608.1L763 600Z" fill="#690000" stroke="#000000"></path><path d="M901 160.1L817 135.4L884 179.6Z" fill="#910000" stroke="#000000"></path><path d="M842 78.4L803 0L777 46.7Z" fill="#690000" stroke="#000000"></path><path d="M91 600L173 600L159 567.3Z" fill="#7c0000" stroke="#000000"></path><path d="M61 103.4L78 144.7L102 115.3Z" fill="#c90001" stroke="#000000"></path><path d="M102 115.3L78 144.7L116 146.7Z" fill="#000000" stroke="#000000"></path><path d="M87 167.6L41 192.3L105 250Z" fill="#c90001" stroke="#000000"></path><path d="M78 144.7L74 152.4L87 167.6Z" fill="#c90001" stroke="#000000"></path><path d="M864 56.9L803 0L842 78.4Z" fill="#b70001" stroke="#000000"></path><path d="M761 -10.1L825 -9.3L714 -31.1Z" fill="#db0000" stroke="#000000"></path><path d="M900 209.4L901 160.1L884 179.6Z" fill="#570000" stroke="#000000"></path><path d="M900 213.3L901 160.1L900 209.4Z" fill="#ff0000" stroke="#000000"></path><path d="M900 217.1L901 160.1L900 213.3Z" fill="#db0000" stroke="#000000"></path><path d="M900 227.6L901 160.1L900 217.1Z" fill="#db0000" stroke="#000000"></path><path d="M909 449.6L901 160.1L900 227.6Z" fill="#b70001" stroke="#000000"></path><path d="M909 449.6L900 227.6L900 274.9Z" fill="#7c0000" stroke="#000000"></path><path d="M909 449.6L900 274.9L900 314.7Z" fill="#7c0000" stroke="#000000"></path><path d="M909 449.6L900 314.7L900 350Z" fill="#db0000" stroke="#000000"></path><path d="M25 376.7L46 361.7L0 367Z" fill="#570000" stroke="#000000"></path><path d="M72 315.1L46 361.7L138 397.9Z" fill="#ff0000" stroke="#000000"></path><path d="M77 421.4L82 495.4L111 500.1Z" fill="#b70001" stroke="#000000"></path><path d="M111 500.1L91 600L142 551.1Z" fill="#ff0000" stroke="#000000"></path><path d="M142 551.1L91 600L159 567.3Z" fill="#570000" stroke="#000000"></path><path d="M52 471.6L82 495.4L77 421.4Z" fill="#db0000" stroke="#000000"></path><path d="M0 148.6L46 176.3L0 140.4Z" fill="#a60000" stroke="#000000"></path><path d="M112 0L89 87.6L142 84.9Z" fill="#db0000" stroke="#000000"></path><path d="M900 53.7L864 56.9L858 80.9Z" fill="#c90001" stroke="#000000"></path><path d="M858 80.9L864 56.9L842 78.4Z" fill="#570000" stroke="#000000"></path><path d="M886 518.1L873 445.4L823 514.4Z" fill="#570000" stroke="#000000"></path><path d="M873 445.4L909 449.6L900 383.4Z" fill="#db0000" stroke="#000000"></path><path d="M900 383.4L909 449.6L900 350Z" fill="#c90001" stroke="#000000"></path><path d="M174 -36.1L147 0L174 3.9Z" fill="#690000" stroke="#000000"></path><path d="M174 3.9L147 0L142 84.9Z" fill="#b70001" stroke="#000000"></path><path d="M174 -36.1L145 0L147 0Z" fill="#ff0000" stroke="#000000"></path><path d="M147 0L145 0L142 84.9Z" fill="#c90001" stroke="#000000"></path><path d="M61 103.4L74 152.4L78 144.7Z" fill="#a60000" stroke="#000000"></path><path d="M74 152.4L46 176.3L87 167.6Z" fill="#570000" stroke="#000000"></path><path d="M46 176.3L41 192.3L87 167.6Z" fill="#a60000" stroke="#000000"></path><path d="M588 -40.1L174 -36.1L285 -36.1Z" fill="#b70001" stroke="#000000"></path><path d="M285 -36.1L174 -36.1L265 0Z" fill="#000000" stroke="#000000"></path><path d="M886 575.3L886 518.1L823 514.4Z" fill="#db0000" stroke="#000000"></path><path d="M886 518.1L900 492.6L873 445.4Z" fill="#ff0000" stroke="#000000"></path><path d="M763 600L831 600L803 587.3Z" fill="#a60000" stroke="#000000"></path><path d="M803 587.3L831 600L807 525.3Z" fill="#ed0000" stroke="#000000"></path><path d="M842 608.1L831 600L763 600Z" fill="#b70001" stroke="#000000"></path><path d="M864 56.9L825 -9.3L803 0Z" fill="#690000" stroke="#000000"></path><path d="M803 0L825 -9.3L761 -10.1Z" fill="#db0000" stroke="#000000"></path><path d="M25 464.7L52 471.6L77 421.4Z" fill="#db0000" stroke="#000000"></path><path d="M82 495.4L91 600L111 500.1Z" fill="#910000" stroke="#000000"></path><path d="M5 314.1L46 361.7L72 315.1Z" fill="#ed0000" stroke="#000000"></path><path d="M46 361.7L25 376.7L77 421.4Z" fill="#910000" stroke="#000000"></path><path d="M0 76.7L61 103.4L0 46.9Z" fill="#000000" stroke="#000000"></path><path d="M89 87.6L61 103.4L102 115.3Z" fill="#ff0000" stroke="#000000"></path><path d="M46 176.3L12 199.6L41 192.3Z" fill="#690000" stroke="#000000"></path><path d="M112 0L142 84.9L145 0Z" fill="#b70001" stroke="#000000"></path><path d="M5 314.1L16 290L0 296.1Z" fill="#db0000" stroke="#000000"></path><path d="M41 192.3L16 290L87 286.1Z" fill="#690000" stroke="#000000"></path><path d="M222 639.1L842 608.1L648 600Z" fill="#7c0000" stroke="#000000"></path><path d="M831 600L886 575.3L823 514.4Z" fill="#690000" stroke="#000000"></path><path d="M886 518.1L900 557.3L900 492.6Z" fill="#b70001" stroke="#000000"></path><path d="M174 -36.1L112 0L145 0Z" fill="#000000" stroke="#000000"></path><path d="M16 290L5 314.1L72 315.1Z" fill="#000000" stroke="#000000"></path><path d="M0 429.3L25 464.7L77 421.4Z" fill="#db0000" stroke="#000000"></path><path d="M12 199.6L16 290L41 192.3Z" fill="#c90001" stroke="#000000"></path><path d="M901 160.1L900 53.7L858 80.9Z" fill="#000000" stroke="#000000"></path><path d="M864 56.9L895 27.7L825 -9.3Z" fill="#ed0000" stroke="#000000"></path><path d="M900 38.9L900 53.7L901 160.1Z" fill="#ed0000" stroke="#000000"></path><path d="M46 176.3L74 152.4L0 140.4Z" fill="#ff0000" stroke="#000000"></path><path d="M0 148.6L12 199.6L46 176.3Z" fill="#b70001" stroke="#000000"></path><path d="M174 -36.1L105 0L112 0Z" fill="#ed0000" stroke="#000000"></path><path d="M112 0L105 0L89 87.6Z" fill="#a60000" stroke="#000000"></path><path d="M12 199.6L0 296.1L16 290Z" fill="#910000" stroke="#000000"></path><path d="M0 296.1L0 321.9L5 314.1Z" fill="#690000" stroke="#000000"></path><path d="M5 314.1L0 322.7L46 361.7Z" fill="#a60000" stroke="#000000"></path><path d="M0 321.9L0 322.7L5 314.1Z" fill="#db0000" stroke="#000000"></path><path d="M900 492.6L910 566.4L909 449.6Z" fill="#ed0000" stroke="#000000"></path><path d="M842 608.1L886 575.3L831 600Z" fill="#c90001" stroke="#000000"></path><path d="M0 429.3L77 421.4L25 376.7Z" fill="#c90001" stroke="#000000"></path><path d="M9 570.3L71 600L82 495.4Z" fill="#c90001" stroke="#000000"></path><path d="M886 575.3L900 557.3L886 518.1Z" fill="#570000" stroke="#000000"></path><path d="M0 322.7L0 367L46 361.7Z" fill="#ed0000" stroke="#000000"></path><path d="M900 0L900 38.9L901 160.1Z" fill="#7c0000" stroke="#000000"></path><path d="M900 53.7L900 38.9L864 56.9Z" fill="#ff0000" stroke="#000000"></path><path d="M900 38.9L895 27.7L864 56.9Z" fill="#b70001" stroke="#000000"></path><path d="M-50 421.9L-5 375L0 322.7Z" fill="#000000" stroke="#000000"></path><path d="M0 322.7L-5 375L0 367Z" fill="#ff0000" stroke="#000000"></path><path d="M0 367L-5 375L25 376.7Z" fill="#000000" stroke="#000000"></path><path d="M-50 421.9L0 322.7L0 321.9Z" fill="#570000" stroke="#000000"></path><path d="M82 600L91 600L82 495.4Z" fill="#ff0000" stroke="#000000"></path><path d="M173 600L91 600L222 639.1Z" fill="#c90001" stroke="#000000"></path><path d="M-5 375L0 429.3L25 376.7Z" fill="#ff0000" stroke="#000000"></path><path d="M71 600L82 600L82 495.4Z" fill="#690000" stroke="#000000"></path><path d="M900 557.3L910 566.4L900 492.6Z" fill="#b70001" stroke="#000000"></path><path d="M886 575.3L910 566.4L900 557.3Z" fill="#a60000" stroke="#000000"></path><path d="M900 588.1L910 566.4L886 575.3Z" fill="#b70001" stroke="#000000"></path><path d="M82 495.4L52 471.6L0 518.4Z" fill="#a60000" stroke="#000000"></path><path d="M91 600L0 633.1L222 639.1Z" fill="#570000" stroke="#000000"></path><path d="M900 600L900 588.1L886 575.3Z" fill="#000000" stroke="#000000"></path><path d="M0 429.3L0 444.6L25 464.7Z" fill="#910000" stroke="#000000"></path><path d="M-50 421.9L0 444.6L0 429.3Z" fill="#690000" stroke="#000000"></path><path d="M0 140.4L74 152.4L61 103.4Z" fill="#910000" stroke="#000000"></path><path d="M12 199.6L0 148.6L0 296.1Z" fill="#c90001" stroke="#000000"></path><path d="M0 296.1L-50 421.9L0 321.9Z" fill="#ed0000" stroke="#000000"></path><path d="M0 444.6L2 459.1L25 464.7Z" fill="#000000" stroke="#000000"></path><path d="M0 122.3L0 140.4L61 103.4Z" fill="#db0000" stroke="#000000"></path><path d="M0 148.6L-50 421.9L0 296.1Z" fill="#c90001" stroke="#000000"></path><path d="M909 449.6L900 0L901 160.1Z" fill="#570000" stroke="#000000"></path><path d="M900 38.9L900 0L895 27.7Z" fill="#690000" stroke="#000000"></path><path d="M895 27.7L900 0L825 -9.3Z" fill="#ed0000" stroke="#000000"></path><path d="M825 -9.3L900 0L714 -31.1Z" fill="#a60000" stroke="#000000"></path><path d="M0 518.4L52 471.6L25 464.7Z" fill="#c90001" stroke="#000000"></path><path d="M82 600L0 633.1L91 600Z" fill="#b70001" stroke="#000000"></path><path d="M842 608.1L900 600L886 575.3Z" fill="#7c0000" stroke="#000000"></path><path d="M900 588.1L900 600L910 566.4Z" fill="#a60000" stroke="#000000"></path><path d="M0 76.7L0 122.3L61 103.4Z" fill="#a60000" stroke="#000000"></path><path d="M0 140.4L-4 122.9L0 148.6Z" fill="#ff0000" stroke="#000000"></path><path d="M0 76.7L-4 122.9L0 122.3Z" fill="#b70001" stroke="#000000"></path><path d="M0 122.3L-4 122.9L0 140.4Z" fill="#000000" stroke="#000000"></path><path d="M-32 524.6L0 518.4L2 459.1Z" fill="#c90001" stroke="#000000"></path><path d="M2 459.1L0 518.4L25 464.7Z" fill="#a60000" stroke="#000000"></path><path d="M-50 421.9L2 459.1L0 444.6Z" fill="#570000" stroke="#000000"></path><path d="M0 46.9L61 103.4L89 87.6Z" fill="#db0000" stroke="#000000"></path><path d="M0 0L0 46.9L105 0Z" fill="#ed0000" stroke="#000000"></path><path d="M105 0L0 46.9L89 87.6Z" fill="#ff0000" stroke="#000000"></path><path d="M0 76.7L-43 -16.1L-4 122.9Z" fill="#ed0000" stroke="#000000"></path><path d="M0 518.4L9 570.3L82 495.4Z" fill="#570000" stroke="#000000"></path><path d="M-4 122.9L-50 421.9L0 148.6Z" fill="#690000" stroke="#000000"></path><path d="M-5 375L-50 421.9L0 429.3Z" fill="#db0000" stroke="#000000"></path><path d="M0 518.4L-1 557.3L9 570.3Z" fill="#ed0000" stroke="#000000"></path><path d="M-43 -16.1L-50 421.9L-4 122.9Z" fill="#570000" stroke="#000000"></path><path d="M-32 524.6L-1 557.3L0 518.4Z" fill="#910000" stroke="#000000"></path><path d="M-50 421.9L-32 524.6L2 459.1Z" fill="#a60000" stroke="#000000"></path><path d="M-12 600L0 600L9 570.3Z" fill="#ed0000" stroke="#000000"></path><path d="M174 -36.1L0 0L105 0Z" fill="#690000" stroke="#000000"></path><path d="M0 46.9L-43 -16.1L0 76.7Z" fill="#910000" stroke="#000000"></path><path d="M-12 600L9 570.3L-1 557.3Z" fill="#690000" stroke="#000000"></path><path d="M9 570.3L0 600L71 600Z" fill="#b70001" stroke="#000000"></path><path d="M71 600L0 633.1L82 600Z" fill="#910000" stroke="#000000"></path><path d="M-32 524.6L-12 600L-1 557.3Z" fill="#db0000" stroke="#000000"></path><path d="M0 600L0 633.1L71 600Z" fill="#910000" stroke="#000000"></path><path d="M-12 600L0 633.1L0 600Z" fill="#b70001" stroke="#000000"></path><path d="M174 -36.1L-43 -16.1L0 0Z" fill="#570000" stroke="#000000"></path><path d="M0 0L-43 -16.1L0 46.9Z" fill="#910000" stroke="#000000"></path></g></svg>